<svg width="16" height="16" viewBox="0 0 16 16" fill="none" xmlns="http://www.w3.org/2000/svg">
<path fill-rule="evenodd" clip-rule="evenodd" d="M8.00006 5.5C8.00006 5.5 9.03559 5.5 9.76783 6.23223C9.76783 6.23223 10.5001 6.96447 10.5001 8C10.5001 8 10.5001 9.03553 9.76783 9.76777C9.76783 9.76777 9.03559 10.5 8.00006 10.5C8.00006 10.5 6.96453 10.5 6.23229 9.76777C6.23229 9.76777 5.50006 9.03553 5.50006 8C5.50006 8 5.50006 6.96447 6.23229 6.23223C6.23229 6.23223 6.96453 5.5 8.00006 5.5ZM8.00006 6.5C8.00006 6.5 7.37874 6.5 6.9394 6.93934C6.9394 6.93934 6.50006 7.37868 6.50006 8C6.50006 8 6.50006 8.62132 6.9394 9.06066C6.9394 9.06066 7.37874 9.5 8.00006 9.5C8.00006 9.5 8.62138 9.5 9.06072 9.06066C9.06072 9.06066 9.50006 8.62132 9.50006 8C9.50006 8 9.50006 7.37868 9.06072 6.93934C9.06072 6.93934 8.62138 6.5 8.00006 6.5Z" fill="#1C1C1C"/>
<path d="M5.17217 5.17247C5.26593 5.07871 5.31881 4.95133 5.31881 4.81873C5.31881 4.68621 5.2662 4.55912 5.17256 4.46537C5.07879 4.3716 4.95142 4.31873 4.81881 4.31873C4.68629 4.31873 4.5592 4.37133 4.46545 4.46498C3.77418 5.15549 3.39541 6.05614 3.39541 6.05614C2.99994 6.98687 2.99994 7.99998 2.99994 7.99998C2.99994 9.01308 3.39613 9.94551 3.39613 9.94551C3.77418 10.8445 4.46545 11.535 4.46545 11.535C4.5592 11.6286 4.6863 11.6812 4.81881 11.6812C4.95142 11.6812 5.07884 11.6284 5.17256 11.5346C5.2662 11.4408 5.31881 11.3137 5.31881 11.1812C5.31873 11.0486 5.26599 10.9212 5.17217 10.8275C4.61984 10.2758 4.31649 9.55444 4.31649 9.55444C3.99994 8.80944 3.99994 7.99998 3.99994 7.99998C3.99994 7.19051 4.31721 6.44381 4.31721 6.44381C4.61985 5.72419 5.17217 5.17247 5.17217 5.17247Z" fill="#1C1C1C"/>
<path d="M11.5349 4.46517C12.226 5.15561 12.604 6.05444 12.604 6.05444C13.0002 6.98687 13.0002 7.99998 13.0002 7.99998C13.0002 9.01308 12.6047 9.94381 12.6047 9.94381C12.2259 10.8445 11.5347 11.535 11.5347 11.535C11.4472 11.6224 11.3304 11.6742 11.2069 11.6806C11.1984 11.681 11.1898 11.6812 11.1813 11.6812C11.0486 11.6812 10.9213 11.6285 10.8276 11.5346C10.7397 11.4466 10.6878 11.3291 10.6819 11.205C10.6815 11.1971 10.6813 11.1891 10.6813 11.1812C10.6814 11.0486 10.7341 10.9212 10.8279 10.8275C11.3803 10.2758 11.6829 9.55614 11.6829 9.55614C12.0002 8.80944 12.0002 7.99998 12.0002 7.99998C12.0002 7.19051 11.6836 6.44551 11.6836 6.44551C11.3803 5.72419 10.8279 5.17247 10.8279 5.17247C10.7341 5.07869 10.6813 4.95143 10.6813 4.81873C10.6813 4.68724 10.7331 4.56104 10.8255 4.46747L10.8276 4.46537C10.9104 4.38246 11.0197 4.33128 11.1364 4.32075C11.1512 4.31941 11.1661 4.31873 11.181 4.31873C11.3114 4.31873 11.4369 4.36964 11.5303 4.46063L11.5349 4.46517Z" fill="#1C1C1C"/>
<path d="M3.4036 3.4036L3.40588 3.40131C3.49825 3.30773 3.55005 3.18154 3.55005 3.05005C3.55005 2.91728 3.49724 2.78997 3.40328 2.69617L3.399 2.69195C3.30563 2.60097 3.18042 2.55005 3.05005 2.55005C3.0352 2.55006 3.01991 2.55074 3.00512 2.55207C2.88835 2.56261 2.779 2.61384 2.69617 2.69682C1.66247 3.73252 1.08988 5.07948 1.08988 5.07948C0.5 6.48111 0.5 8.00005 0.5 8.00005C0.5 9.51899 1.0892 10.919 1.0892 10.919C1.66229 12.2675 2.69617 13.3033 2.69617 13.3033C2.78985 13.3971 2.91698 13.4499 3.04959 13.45C3.05744 13.45 3.06576 13.4499 3.07361 13.4495C3.19777 13.4436 3.3153 13.3917 3.40328 13.3039C3.49724 13.2101 3.55005 13.0828 3.55005 12.9501C3.55005 12.9416 3.54983 12.9331 3.5494 12.9246C3.54312 12.8011 3.49129 12.6843 3.40393 12.5968C2.50687 11.6981 2.0109 10.5311 2.0109 10.5311C1.5 9.31714 1.5 8.00005 1.5 8.00005C1.5 6.68296 2.01022 5.47062 2.01022 5.47062C2.50678 4.30219 3.4036 3.4036 3.4036 3.4036Z" fill="#1C1C1C"/>
<path d="M13.3043 2.69713L13.3036 2.6965C13.21 2.60284 13.083 2.55017 12.9505 2.55005C12.8181 2.55005 12.6906 2.6026 12.5968 2.69617C12.5031 2.78994 12.4501 2.91744 12.4501 3.05005C12.4501 3.1825 12.5026 3.30954 12.5962 3.40328C13.4932 4.30198 13.9892 5.469 13.9892 5.469C14.5001 6.68296 14.5001 8.00005 14.5001 8.00005C14.5001 9.31714 13.9899 10.5295 13.9899 10.5295C13.4932 11.6981 12.5962 12.5968 12.5962 12.5968C12.5026 12.6906 12.4501 12.8176 12.4501 12.95C12.4502 13.0827 12.503 13.2102 12.5968 13.3039C12.6906 13.3975 12.8176 13.45 12.9501 13.45C13.0827 13.4499 13.2103 13.3971 13.304 13.3033C14.3378 12.2675 14.9102 10.9206 14.9102 10.9206C15.5001 9.51899 15.5001 8.00005 15.5001 8.00005C15.5001 6.48111 14.9109 5.0811 14.9109 5.0811C14.3379 3.7328 13.3043 2.69713 13.3043 2.69713Z" fill="#1C1C1C"/>
</svg>
