<svg width="211" height="76" viewBox="0 0 211 76" fill="none" xmlns="http://www.w3.org/2000/svg">
<rect width="211" height="76" fill="url(#paint0_linear_479_25612)"/>
<path d="M83.2333 28.537C83.2333 28.2404 82.9994 28 82.7108 28C82.4222 28 82.1882 28.2404 82.1882 28.537V31.629C82.1882 31.7858 82.0037 31.8644 81.8957 31.7535L80.3578 30.1731C80.1538 29.9634 79.8229 29.9634 79.6188 30.1731C79.4148 30.3828 79.4148 30.7228 79.6188 30.9325L81.8871 33.2634C82.0799 33.4615 82.1882 33.7302 82.1882 34.0104V36.762C82.1882 36.8976 82.0454 36.9823 81.9312 36.9145L79.6048 35.5343C79.3687 35.3942 79.1964 35.1635 79.1259 34.8928L78.2956 31.7088C78.2209 31.4223 77.9344 31.2523 77.6556 31.3291C77.3768 31.4058 77.2114 31.7003 77.2861 31.9867L77.849 34.1455C77.8885 34.297 77.7301 34.422 77.5979 34.3436L74.9995 32.802C74.7495 32.6537 74.4299 32.7417 74.2856 32.9985C74.1413 33.2553 74.227 33.5837 74.4769 33.732L77.0782 35.2754C77.2104 35.3538 77.1843 35.5573 77.0369 35.5979L74.9315 36.1776C74.6527 36.2543 74.4873 36.5488 74.562 36.8352C74.6367 37.1217 74.9232 37.2917 75.202 37.2149L78.3051 36.3605C78.5685 36.288 78.849 36.326 79.0852 36.466L81.4103 37.8455C81.5246 37.9133 81.5246 38.0827 81.4103 38.1505L79.0806 39.5327C78.8445 39.6728 78.5639 39.7107 78.3005 39.6382L75.202 38.7851C74.9232 38.7083 74.6367 38.8783 74.562 39.1648C74.4873 39.4512 74.6527 39.7457 74.9315 39.8224L77.0323 40.4009C77.1798 40.4415 77.2058 40.645 77.0737 40.7234L74.4752 42.265C74.2253 42.4133 74.1397 42.7417 74.284 42.9985C74.4283 43.2553 74.7478 43.3433 74.9978 43.1951L77.5991 41.6517C77.7313 41.5733 77.8898 41.6983 77.8503 41.8498L77.2861 44.0133C77.2114 44.2997 77.3768 44.5942 77.6556 44.6709C77.9344 44.7477 78.2209 44.5777 78.2956 44.2912L79.1271 41.1025C79.1976 40.8318 79.3699 40.6011 79.606 40.461L81.9312 39.0815C82.0454 39.0138 82.1882 39.0985 82.1882 39.234V41.9984C82.1882 42.2786 82.0799 42.5473 81.8871 42.7454L79.6188 45.0763C79.4148 45.286 79.4148 45.626 79.6188 45.8357C79.8229 46.0454 80.1538 46.0454 80.3578 45.8357L81.8957 44.2553C82.0037 44.1444 82.1882 44.223 82.1882 44.3798V47.463C82.1882 47.7596 82.4222 48 82.7108 48C82.9994 48 83.2333 47.7596 83.2333 47.463V44.3764C83.2333 44.2195 83.4179 44.141 83.5258 44.2519L85.067 45.8357C85.2711 46.0454 85.602 46.0454 85.806 45.8357C86.0101 45.626 86.0101 45.286 85.806 45.0763L83.5344 42.7419C83.3416 42.5438 83.2333 42.2752 83.2333 41.995V39.232C83.2333 39.0965 83.3761 39.0118 83.4903 39.0796L85.8114 40.4566C86.0475 40.5967 86.2198 40.8275 86.2904 41.0981L87.1219 44.2868C87.1965 44.5733 87.4831 44.7433 87.7618 44.6665C88.0406 44.5898 88.206 44.2953 88.1313 44.0089L87.5672 41.8454C87.5277 41.6939 87.6862 41.5689 87.8184 41.6473L90.4271 43.1951C90.677 43.3433 90.9966 43.2553 91.1409 42.9985C91.2852 42.7417 91.1996 42.4133 90.9496 42.265L88.3438 40.719C88.2116 40.6406 88.2377 40.4371 88.3851 40.3965L90.4859 39.818C90.7647 39.7413 90.9301 39.4468 90.8554 39.1604C90.7808 38.8739 90.4942 38.7039 90.2155 38.7807L87.1169 39.6338C86.8536 39.7063 86.573 39.6684 86.3369 39.5283L84.0145 38.1505C83.9003 38.0827 83.9003 37.9133 84.0145 37.8455L86.3323 36.4704C86.5684 36.3304 86.849 36.2924 87.1123 36.3649L90.2155 37.2193C90.4942 37.2961 90.7808 37.1261 90.8554 36.8396C90.9301 36.5532 90.7647 36.2588 90.4859 36.182L88.3805 35.6023C88.2331 35.5617 88.207 35.3582 88.3392 35.2798L90.948 33.732C91.1979 33.5837 91.2835 33.2553 91.1392 32.9985C90.9949 32.7417 90.6753 32.6537 90.4254 32.802L87.8196 34.348C87.6874 34.4264 87.5289 34.3014 87.5684 34.1499L88.1313 31.9911C88.206 31.7047 88.0406 31.4102 87.7618 31.3335C87.4831 31.2567 87.1965 31.4267 87.1219 31.7132L86.2916 34.8972C86.221 35.1679 86.0488 35.3986 85.8126 35.5387L83.4903 36.9165C83.3761 36.9842 83.2333 36.8995 83.2333 36.764V34.0138C83.2333 33.7336 83.3416 33.465 83.5344 33.2669L85.806 30.9325C86.0101 30.7228 86.0101 30.3828 85.806 30.1731C85.602 29.9634 85.2711 29.9634 85.067 30.1731L83.5258 31.7569C83.4179 31.8678 83.2333 31.7893 83.2333 31.6324V28.537Z" fill="#95A4FC"/>
<path d="M113.345 42.6154V37.2308C113.345 35.9563 112.341 34.9231 111.103 34.9231C109.865 34.9231 108.862 35.9563 108.862 37.2308V42.6154H107.368V37.2308C107.368 35.1066 109.04 33.3846 111.103 33.3846C113.166 33.3846 114.839 35.1066 114.839 37.2308V42.6154H113.345Z" fill="#E5ECF6"/>
<path fill-rule="evenodd" clip-rule="evenodd" d="M121.563 41.077C123.214 41.077 124.552 39.6994 124.552 38C124.552 36.3007 123.214 34.9231 121.563 34.9231C119.913 34.9231 118.575 36.3007 118.575 38C118.575 39.6994 119.913 41.077 121.563 41.077ZM121.563 42.6154C124.039 42.6154 126.046 40.549 126.046 38C126.046 35.451 124.039 33.3846 121.563 33.3846C119.088 33.3846 117.081 35.451 117.081 38C117.081 40.549 119.088 42.6154 121.563 42.6154Z" fill="#95A4FC"/>
<path d="M127.54 33.3846L128.948 41.3474C129.24 42.9991 131.382 43.0526 131.743 41.4172L132.578 36.8784C132.609 36.7116 132.826 36.715 132.852 36.8826L133.555 41.3498C133.866 42.9989 136.012 43.0201 136.351 41.3774L138 33.3846H136.55L135.098 41.0465C135.067 41.2112 134.853 41.209 134.825 41.0437L133.507 33.3846H132.047L130.503 41.069C130.47 41.2332 130.257 41.2284 130.23 41.0629L128.984 33.3846H127.54Z" fill="#E5ECF6"/>
<path d="M101.687 42.6154C102.736 42.6154 103.572 42.3903 104.194 41.9212C104.816 41.4522 105.126 40.8143 105.126 39.97C105.126 39.2383 104.874 38.6942 104.388 38.3002C103.883 37.9062 103.222 37.5685 102.386 37.2683C101.823 37.0432 101.337 36.8368 100.968 36.6492C100.598 36.4616 100.404 36.1801 100.404 35.8049C100.404 35.4672 100.54 35.2045 100.832 35.0357C101.123 34.8668 101.512 34.7918 101.998 34.7918C102.367 34.7918 102.736 34.8481 103.086 34.9606C103.416 35.0732 103.766 35.2233 104.135 35.4297L104.738 34.1539C104.33 33.8912 103.883 33.7036 103.416 33.5723C102.95 33.4409 102.483 33.3846 101.998 33.3846C101.026 33.3846 100.249 33.591 99.6461 34.0225C99.0437 34.4541 98.7522 35.0544 98.7716 35.8237C98.791 36.5366 99.0437 37.0807 99.5489 37.4559C100.035 37.8312 100.696 38.1689 101.531 38.4691C102.095 38.6755 102.561 38.8818 102.93 39.0882C103.3 39.2946 103.475 39.6135 103.475 40.0263C103.475 40.4015 103.319 40.683 103.008 40.8893C102.678 41.0957 102.231 41.1895 101.628 41.1895C101.22 41.1895 100.793 41.1145 100.365 40.9831C99.9376 40.8518 99.4906 40.6454 99.0048 40.3265L98.4023 41.6586C98.8882 41.9588 99.4129 42.1839 99.9376 42.3527C100.462 42.5216 101.045 42.6154 101.687 42.6154Z" fill="#E5ECF6"/>
<defs>
<linearGradient id="paint0_linear_479_25612" x1="105.5" y1="0" x2="105.5" y2="18.7467" gradientUnits="userSpaceOnUse">
<stop stop-color="#1C1C1C" stop-opacity="0"/>
<stop offset="1" stop-color="#1C1C1C"/>
</linearGradient>
</defs>
</svg>
