<svg width="24" height="24" viewBox="0 0 24 24" fill="none" xmlns="http://www.w3.org/2000/svg">
<path fill-rule="evenodd" clip-rule="evenodd" d="M12 8.62489C12 8.62489 13.864 8.62489 15.182 9.94291C15.182 9.94291 16.5 11.2609 16.5 13.1249C16.5 13.1249 16.5 14.9888 15.182 16.3069C15.182 16.3069 13.864 17.6249 12 17.6249C12 17.6249 10.136 17.6249 8.81802 16.3069C8.81802 16.3069 7.5 14.9888 7.5 13.1249C7.5 13.1249 7.5 11.2609 8.81802 9.94291C8.81802 9.94291 10.136 8.62489 12 8.62489ZM12 10.1249C12 10.1249 10.7574 10.1249 9.87868 11.0036C9.87868 11.0036 9 11.8822 9 13.1249C9 13.1249 9 14.3675 9.87868 15.2462C9.87868 15.2462 10.7574 16.1249 12 16.1249C12 16.1249 13.2426 16.1249 14.1213 15.2462C14.1213 15.2462 15 14.3675 15 13.1249C15 13.1249 15 11.8822 14.1213 11.0036C14.1213 11.0036 13.2426 10.1249 12 10.1249Z" fill="#1C1C1C"/>
<path d="M22.274 13.5736C22.3931 13.7329 22.5708 13.8387 22.7677 13.8672C22.8032 13.8723 22.8391 13.8749 22.875 13.8749L22.8763 13.8749C23.0377 13.8746 23.1947 13.8223 23.324 13.7256C23.5135 13.5841 23.625 13.3614 23.625 13.1249L23.625 13.1163C23.6231 12.9574 23.5709 12.8032 23.4758 12.6759L23.4751 12.675C22.5736 11.4693 21.227 10.7959 21.227 10.7959C19.8799 10.1224 18.3738 10.1249 18.3738 10.1249L18.375 10.1249C18.7892 10.1249 19.125 10.4607 19.125 10.8749C19.125 11.2885 18.7902 11.624 18.3767 11.6249L22.274 13.5736Z" fill="#1C1C1C"/>
<path d="M3.44384 12.1376C4.47305 11.623 5.62375 11.6249 5.62375 11.6249L5.6248 11.6249C5.63639 11.6249 5.64819 11.6246 5.65977 11.6241C5.84603 11.6154 6.02238 11.5377 6.15444 11.4061C6.29533 11.2657 6.37467 11.0751 6.375 10.8762L6.375 10.8751C6.375 10.8298 6.37088 10.7843 6.36271 10.7397C6.29751 10.384 5.98783 10.1255 5.62625 10.1249L5.625 10.1249C4.11958 10.1227 2.77302 10.7959 2.77302 10.7959C1.42638 11.4693 0.524888 12.675 0.524888 12.675L0.524345 12.6758C0.427356 12.8055 0.375 12.963 0.375 13.1249L0.375041 13.1328C0.37539 13.166 0.377954 13.1993 0.382716 13.2322C0.411176 13.4291 0.516675 13.6066 0.676004 13.7256C0.805645 13.8225 0.963152 13.8749 1.125 13.8749C1.13503 13.8749 1.14505 13.8747 1.15507 13.8743C1.38084 13.8652 1.59049 13.7549 1.72575 13.5739C2.41463 12.6522 3.44384 12.1376 3.44384 12.1376Z" fill="#1C1C1C"/>
<path d="M14.786 18.4258C16.064 19.224 16.7254 20.5776 16.7254 20.5776L16.7258 20.5785C16.8516 20.836 17.1134 20.9999 17.4 20.9999L17.4205 20.9996C17.5276 20.9967 17.6328 20.9708 17.7291 20.9238C17.9866 20.7981 18.15 20.5365 18.15 20.2499L18.1497 20.2293C18.1468 20.1223 18.1209 20.017 18.0739 19.9208C17.2239 18.1803 15.5806 17.1536 15.5806 17.1536C13.9374 16.1273 12 16.1273 12 16.1273C10.0626 16.1273 8.41936 17.1536 8.41936 17.1536C6.77641 18.1797 5.92633 19.9202 5.92633 19.9202C5.87626 20.0227 5.84999 20.1358 5.84999 20.2499L5.85005 20.2596C5.85109 20.3393 5.86483 20.4184 5.89074 20.4937C5.95542 20.6818 6.09217 20.8365 6.27091 20.9238C6.37339 20.9739 6.48594 20.9999 6.59999 20.9999L6.61721 20.9997C6.89756 20.9932 7.1509 20.8309 7.27394 20.579C7.93538 19.2244 9.21395 18.4258 9.21395 18.4258C10.4925 17.6273 12 17.6273 12 17.6273C13.5074 17.6273 14.786 18.4258 14.786 18.4258Z" fill="#1C1C1C"/>
<path d="M7.26176 6.33426C7.70944 6.81077 7.83204 7.45299 7.83204 7.45299C7.86933 7.64838 7.98272 7.82095 8.14725 7.93273C8.27158 8.0172 8.41842 8.06237 8.56873 8.06237L8.5736 8.06235C8.61916 8.06206 8.6646 8.05761 8.70936 8.04907C9.06296 7.98157 9.31874 7.67236 9.31874 7.31237L9.31872 7.30814C9.31846 7.26237 9.31402 7.21671 9.30543 7.17174C9.10111 6.10137 8.35497 5.30718 8.35497 5.30718C7.60884 4.513 6.55328 4.24236 6.55328 4.24236C5.49772 3.97173 4.4615 4.30894 4.4615 4.30894C3.42528 4.64615 2.73116 5.48617 2.73116 5.48617C2.03703 6.3262 1.90119 7.4074 1.90119 7.4074C1.76535 8.4886 2.2301 9.47423 2.2301 9.47423C2.69486 10.4599 3.61545 11.0429 3.61545 11.0429C4.53572 11.6258 5.6248 11.6249 5.6248 11.6249L5.62575 11.6249C5.82466 11.6247 6.01534 11.5455 6.15585 11.4047C6.29618 11.2641 6.375 11.0738 6.375 10.8751L6.37498 10.8741C6.37456 10.4602 6.03892 10.1249 5.625 10.1249L5.62422 10.1249C4.9704 10.1255 4.41805 9.7757 4.41805 9.7757C3.86569 9.42586 3.58684 8.83448 3.58684 8.83448C3.30799 8.24311 3.38949 7.59439 3.38949 7.59439C3.471 6.94567 3.88747 6.44165 3.88747 6.44165C4.30395 5.93764 4.92568 5.73531 4.92568 5.73531C5.54741 5.53298 6.18074 5.69537 6.18074 5.69537C6.81408 5.85775 7.26176 6.33426 7.26176 6.33426Z" fill="#1C1C1C"/>
<path d="M19.5819 9.7757C19.0296 10.1255 18.3758 10.1249 18.3758 10.1249L18.375 10.1249C18.3633 10.1249 18.3515 10.1251 18.3397 10.1257L17.6258 10.9101C17.6346 11.0964 17.7124 11.2727 17.8441 11.4047C17.9846 11.5455 18.1753 11.6247 18.3742 11.6249L18.375 11.6249C19.4643 11.6258 20.3845 11.0429 20.3845 11.0429C21.3051 10.4599 21.7699 9.47423 21.7699 9.47423C22.2346 8.4886 22.0988 7.4074 22.0988 7.4074C21.963 6.3262 21.2688 5.48617 21.2688 5.48617C20.5747 4.64615 19.5385 4.30894 19.5385 4.30894C18.5023 3.97173 17.4467 4.24236 17.4467 4.24236C16.3912 4.513 15.645 5.30718 15.645 5.30718C14.8989 6.10137 14.6946 7.17174 14.6946 7.17174C14.6857 7.2181 14.6813 7.26518 14.6813 7.31237C14.6813 7.33491 14.6823 7.35743 14.6843 7.37988C14.7144 7.71326 14.9618 7.9863 15.2906 8.04907C15.337 8.05792 15.3841 8.06237 15.4313 8.06237C15.4538 8.06237 15.4763 8.06135 15.4988 8.05932C15.8321 8.02919 16.1052 7.78179 16.168 7.45299C16.2906 6.81077 16.7382 6.33426 16.7382 6.33426C17.1859 5.85775 17.8193 5.69537 17.8193 5.69537C18.4526 5.53298 19.0743 5.73531 19.0743 5.73531C19.696 5.93764 20.1125 6.44165 20.1125 6.44165C20.529 6.94566 20.6105 7.59439 20.6105 7.59439C20.692 8.24311 20.4132 8.83448 20.4132 8.83448C20.1343 9.42586 19.5819 9.7757 19.5819 9.7757Z" fill="#1C1C1C"/>
</svg>
