<svg width="53" height="12" viewBox="0 0 53 12" fill="none" xmlns="http://www.w3.org/2000/svg">
<g id="Snow Logo">
<path id="Subtract" d="M20 12V5C20 3.34315 18.6569 2 17 2C15.3431 2 14 3.34315 14 5V12H12V5C12 2.23858 14.2386 0 17 0C19.7614 0 22 2.23858 22 5V12H20Z" fill="#E5ECF6"/>
<path id="Ellipse" fill-rule="evenodd" clip-rule="evenodd" d="M31 10C33.2091 10 35 8.20914 35 6C35 3.79086 33.2091 2 31 2C28.7909 2 27 3.79086 27 6C27 8.20914 28.7909 10 31 10ZM31 12C34.3137 12 37 9.31371 37 6C37 2.68629 34.3137 0 31 0C27.6863 0 25 2.68629 25 6C25 9.31371 27.6863 12 31 12Z" fill="#95A4FC"/>
<path id="Subtract_2" d="M39 0L40.8849 10.3516C41.2759 12.4988 44.143 12.5684 44.6258 10.4424L45.7431 4.54182C45.7842 4.32506 46.0747 4.32948 46.11 4.5474L47.0502 10.3547C47.4675 12.4986 50.339 12.5261 50.7927 10.3906L53 0H51.0588L49.1166 9.9604C49.0748 10.1745 48.7885 10.1717 48.7505 9.9568L46.9863 0H45.0323L42.9663 9.9897C42.9221 10.2031 42.6362 10.1968 42.6003 9.98168L40.932 0H39Z" fill="#E5ECF6"/>
<path id="s" d="M4.39595 12C5.80058 12 6.91908 11.7073 7.75145 11.0976C8.58382 10.4878 9 9.65854 9 8.56098C9 7.60976 8.66185 6.90244 8.01156 6.39024C7.33526 5.87805 6.45087 5.43902 5.33237 5.04878C4.57803 4.7561 3.92775 4.4878 3.43353 4.2439C2.93931 4 2.67919 3.63415 2.67919 3.14634C2.67919 2.70732 2.86127 2.36585 3.25145 2.14634C3.64162 1.92683 4.16185 1.82927 4.81214 1.82927C5.30636 1.82927 5.80058 1.90244 6.26879 2.04878C6.71098 2.19512 7.17919 2.39024 7.67341 2.65854L8.47977 1C7.93353 0.658536 7.33526 0.414634 6.71098 0.243902C6.08671 0.0731705 5.46243 0 4.81214 0C3.51156 0 2.4711 0.268293 1.66474 0.829268C0.858382 1.39024 0.468208 2.17073 0.49422 3.17073C0.520231 4.09756 0.858382 4.80488 1.53468 5.29268C2.18497 5.78049 3.06936 6.21951 4.18786 6.60976C4.9422 6.87805 5.56647 7.14634 6.06069 7.41463C6.55491 7.68293 6.78902 8.09756 6.78902 8.63415C6.78902 9.12195 6.58093 9.48781 6.16474 9.7561C5.72254 10.0244 5.12428 10.1463 4.31792 10.1463C3.77168 10.1463 3.19942 10.0488 2.62717 9.87805C2.05491 9.70732 1.45665 9.43902 0.806358 9.02439L0 10.7561C0.650289 11.1463 1.3526 11.439 2.05491 11.6585C2.75723 11.878 3.53757 12 4.39595 12Z" fill="#E5ECF6"/>
</g>
</svg>
